<?xml version="1.0" standalone="no"?>
<!DOCTYPE svg PUBLIC "-//W3C//DTD SVG 20010904//EN"
 "http://www.w3.org/TR/2001/REC-SVG-20010904/DTD/svg10.dtd">
<svg version="1.0" xmlns="http://www.w3.org/2000/svg"
 width="700.000000pt" height="700.000000pt" viewBox="0 0 700.000000 700.000000"
 preserveAspectRatio="xMidYMid meet">
<metadata>
Created by potrace 1.14, written by Peter Selinger 2001-2017
</metadata>
<g transform="translate(0.000000,700.000000) scale(0.100000,-0.100000)"
fill="#000000" stroke="none">
<path d="M3235 6694 c-16 -2 -73 -9 -125 -15 -582 -65 -1211 -338 -1665 -722
-245 -208 -493 -493 -660 -757 -236 -376 -391 -804 -462 -1275 -28 -185 -25
-689 4 -875 110 -699 400 -1289 873 -1774 288 -295 529 -470 895 -651 301
-149 574 -236 915 -292 155 -26 185 -27 485 -28 335 0 395 5 650 56 1180 236
2151 1159 2455 2332 74 287 100 496 100 807 0 311 -26 520 -100 807 -57 221
-118 382 -230 608 -104 211 -226 406 -364 580 -102 129 -382 409 -511 511
-476 376 -1060 616 -1653 679 -122 13 -520 19 -607 9z m665 -59 c579 -79 1086
-291 1550 -651 148 -114 420 -386 534 -534 334 -431 543 -903 630 -1420 151
-899 -81 -1791 -652 -2510 -98 -122 -360 -384 -482 -482 -468 -372 -987 -592
-1585 -674 -163 -22 -588 -26 -745 -6 -386 49 -725 150 -1051 312 -326 163
-563 334 -829 600 -262 262 -432 497 -594 820 -168 338 -259 633 -313 1020
-24 175 -24 605 0 780 37 267 96 499 184 730 435 1136 1475 1921 2688 2030
140 12 527 4 665 -15z"/>
<path d="M3645 6233 c-14 -31 -37 -83 -52 -115 -19 -44 -23 -62 -15 -70 9 -9
15 -2 27 25 15 36 17 37 69 37 l54 0 7 -40 c4 -25 12 -40 21 -40 19 0 18 7
-17 142 -26 98 -35 118 -50 118 -14 0 -27 -17 -44 -57z m58 -35 l15 -58 -39 0
c-21 0 -39 3 -39 7 0 10 43 113 46 110 1 -1 9 -28 17 -59z"/>
<path d="M3117 6273 c-16 -4 -18 -12 -13 -46 3 -23 8 -69 11 -102 9 -85 14
-107 27 -103 6 2 11 28 12 59 1 50 3 54 26 57 21 2 30 -6 55 -47 19 -32 37
-51 49 -51 20 0 22 -6 -28 72 -17 26 -17 28 4 56 26 35 21 86 -10 102 -19 10
-99 12 -133 3z m107 -19 c10 -4 16 -18 16 -40 0 -28 -5 -36 -26 -44 -45 -18
-74 -13 -74 13 0 12 -3 32 -6 44 -5 19 -1 22 28 26 18 2 36 5 40 5 3 1 13 -1
22 -4z"/>
<path d="M4078 6100 c-28 -95 -32 -120 -21 -124 8 -3 16 0 18 7 2 6 14 46 25
87 12 41 25 78 29 83 4 4 13 -23 20 -60 8 -38 16 -72 19 -76 2 -5 31 17 64 50
32 32 57 51 54 43 -3 -8 -15 -48 -26 -89 -12 -40 -24 -80 -27 -88 -4 -10 0
-14 12 -12 13 3 26 33 51 119 19 63 34 116 34 117 0 1 -8 3 -17 6 -12 2 -39
-16 -74 -51 l-56 -54 -13 69 c-24 132 -47 126 -92 -27z"/>
<path d="M2649 6165 c-53 -29 -61 -113 -18 -184 37 -61 119 -71 162 -20 9 12
17 16 17 10 0 -6 7 -11 15 -11 19 0 19 2 -2 67 l-17 54 -35 -6 c-44 -8 -53
-14 -45 -26 3 -6 19 -7 35 -4 28 6 29 5 29 -29 0 -29 -5 -38 -30 -51 -16 -8
-36 -15 -44 -15 -49 0 -102 112 -78 165 17 37 59 51 94 32 30 -17 48 -6 28 18
-16 19 -77 19 -111 0z"/>
<path d="M4592 5911 c-43 -80 -56 -111 -46 -115 9 -3 30 24 61 82 l48 87 3
-82 3 -82 69 44 c39 25 70 42 70 40 0 -3 -20 -41 -45 -85 -47 -84 -53 -100
-32 -100 6 0 37 46 67 101 67 124 64 115 44 123 -11 4 -40 -8 -80 -33 l-64
-40 0 78 c0 75 -6 91 -35 91 -2 0 -30 -49 -63 -109z"/>
<path d="M2178 5964 c-67 -36 -65 -130 5 -201 26 -27 38 -33 75 -33 35 0 49 6
73 29 36 36 38 76 8 139 -35 72 -101 99 -161 66z m94 -26 c25 -20 58 -80 58
-106 0 -51 -48 -90 -92 -76 -31 9 -78 83 -78 121 0 59 67 95 112 61z"/>
<path d="M5055 5620 c-42 -50 -75 -94 -73 -99 5 -13 98 -91 109 -91 19 0 8 20
-31 53 -22 19 -40 38 -40 44 0 11 43 53 54 53 5 0 24 -13 43 -30 18 -16 38
-30 43 -30 20 0 9 20 -31 54 l-41 35 23 30 c13 16 27 30 30 30 3 1 25 -15 48
-35 27 -24 46 -33 52 -27 6 6 -9 26 -45 56 -30 26 -56 47 -59 47 -2 0 -39 -41
-82 -90z"/>
<path d="M1785 5688 c-11 -6 -36 -26 -56 -43 l-36 -33 74 -88 c97 -115 91
-110 99 -90 5 12 -4 28 -27 52 l-33 34 21 21 21 22 55 -23 c34 -14 62 -20 74
-15 14 6 6 12 -40 33 -55 24 -58 27 -52 53 5 23 1 35 -23 59 -33 32 -46 36
-77 18z m55 -38 c11 -11 20 -26 20 -34 0 -15 -55 -66 -70 -66 -5 0 -20 14 -33
32 l-25 32 35 28 c43 33 47 34 73 8z"/>
<path d="M3235 5675 c-296 -36 -597 -139 -853 -292 -330 -197 -622 -497 -801
-825 -37 -68 -40 -78 -24 -78 13 0 27 16 42 48 92 188 312 458 509 622 550
459 1267 619 1959 435 535 -142 1017 -512 1306 -1002 33 -57 67 -103 75 -103
19 0 13 13 -52 124 -356 604 -969 1000 -1668 1075 -128 14 -356 12 -493 -4z"/>
<path d="M5387 5294 c-53 -42 -94 -81 -91 -85 9 -15 30 -10 50 12 34 38 52 42
69 16 14 -22 13 -28 -9 -80 -19 -42 -22 -58 -13 -65 9 -7 18 4 35 43 23 52 25
53 57 48 27 -4 39 0 59 20 14 15 26 35 26 45 0 19 -69 122 -81 122 -3 0 -49
-34 -102 -76z m127 5 c30 -36 32 -46 9 -71 -22 -24 -45 -23 -70 5 -35 38 -35
46 -6 72 15 13 31 25 35 25 3 0 18 -14 32 -31z"/>
<path d="M1401 5303 c-23 -27 -41 -50 -41 -53 0 -3 43 -41 96 -84 73 -59 99
-75 105 -64 5 8 4 17 -4 23 -7 6 -26 20 -41 32 l-28 23 31 42 c37 51 39 71 6
103 -39 40 -76 34 -124 -22z m101 0 c24 -22 23 -33 -10 -72 l-28 -34 -35 31
-34 31 29 30 c34 35 51 38 78 14z"/>
<path d="M2147 4853 c-4 -3 -7 -573 -7 -1265 l0 -1258 43 -1 c23 0 134 0 247
0 l205 1 4 618 3 617 124 -614 c68 -338 125 -615 126 -616 6 -6 84 -8 286 -6
l212 1 -2 1263 -3 1262 -242 3 -243 2 0 -601 c0 -332 -2 -600 -4 -598 -2 2
-54 265 -116 584 -61 319 -113 588 -116 598 -5 16 -26 17 -258 17 -139 0 -256
-3 -259 -7z"/>
<path d="M3610 3595 l0 -1265 223 -2 c122 -1 233 -2 247 -2 l25 -1 5 575 5
575 120 0 120 0 1 -570 1 -570 34 -5 c19 -3 132 -4 252 -2 l217 4 -2 1262 -3
1261 -247 3 -248 2 -1 -97 c-1 -54 -2 -258 -3 -453 l-1 -355 -122 -3 -123 -3
0 456 0 455 -250 0 -250 0 0 -1265z"/>
<path d="M1465 2678 c18 -59 130 -274 195 -372 102 -155 167 -234 299 -366
698 -696 1787 -838 2638 -344 168 97 303 203 454 353 191 192 325 379 434 608
53 109 63 143 43 143 -7 0 -27 -30 -42 -67 -16 -38 -54 -113 -84 -168 -436
-797 -1316 -1239 -2211 -1109 -710 103 -1326 557 -1640 1206 -36 76 -72 138
-79 138 -9 0 -11 -7 -7 -22z"/>
<path d="M1230 2307 c-19 -17 -60 -53 -89 -78 -37 -31 -52 -51 -48 -62 6 -15
48 -9 205 28 16 4 -4 -19 -57 -66 -120 -105 -113 -118 44 -83 139 31 141 32
127 46 -8 8 -36 5 -102 -12 -50 -12 -94 -20 -96 -17 -2 2 29 34 70 71 51 45
73 72 69 82 -4 10 -13 14 -27 10 -59 -14 -196 -44 -196 -41 0 1 36 31 80 66
75 60 97 89 68 89 -7 0 -29 -15 -48 -33z"/>
<path d="M5633 2286 c-22 -27 -58 -104 -52 -110 18 -18 220 -103 225 -95 7 13
8 12 -43 38 -49 24 -47 21 -31 56 10 23 16 25 75 25 49 0 63 3 63 15 0 12 -13
15 -59 15 -56 0 -59 1 -64 28 -10 51 -83 69 -114 28z m78 -25 l23 -19 -18 -41
c-11 -22 -23 -41 -27 -41 -5 0 -24 7 -43 17 l-35 16 16 31 c31 62 45 69 84 37z"/>
<path d="M5381 1875 c-22 -30 -41 -57 -41 -60 0 -7 187 -145 197 -145 8 1 83
104 84 117 1 22 -21 8 -50 -32 -18 -25 -35 -45 -39 -45 -4 0 -20 11 -37 24
l-30 24 33 45 c20 29 28 48 21 52 -5 4 -12 5 -13 4 -1 -2 -15 -21 -30 -41 -32
-43 -42 -45 -73 -19 -29 24 -29 26 7 71 30 38 38 60 21 60 -5 0 -27 -25 -50
-55z"/>
<path d="M1483 1789 c-48 -39 -92 -74 -97 -79 -10 -10 73 -120 91 -120 20 0
16 9 -23 56 -38 47 -38 53 5 83 l28 20 33 -44 c22 -30 37 -42 44 -35 6 6 -2
24 -23 51 l-34 41 30 30 30 30 38 -46 c37 -45 55 -57 55 -35 0 6 -20 35 -44
64 l-44 55 -89 -71z"/>
<path d="M5073 1536 l-48 -44 69 -73 c38 -41 78 -83 88 -94 12 -13 21 -16 28
-9 7 7 0 23 -24 50 l-34 39 34 38 c41 45 44 84 11 115 -36 34 -69 28 -124 -22z
m111 -19 c9 -24 6 -31 -22 -60 l-33 -32 -30 34 -31 33 28 30 c36 37 74 35 88
-5z"/>
<path d="M1785 1443 c-41 -48 -75 -92 -74 -98 1 -22 90 -85 120 -85 40 0 72
34 67 71 -4 25 -1 29 18 29 25 0 54 34 54 64 0 17 -85 106 -102 106 -4 0 -41
-39 -83 -87z m130 17 c25 -26 27 -33 17 -55 -15 -32 -42 -32 -81 1 l-31 26 21
29 c26 37 38 36 74 -1z m-78 -76 c34 -26 43 -60 21 -82 -20 -20 -53 -13 -82
17 l-28 29 23 31 c12 17 25 31 27 31 3 0 20 -11 39 -26z"/>
<path d="M4721 1273 c-66 -33 -74 -113 -17 -187 47 -62 107 -70 163 -22 23 20
28 32 28 68 0 57 -42 124 -90 144 -42 17 -42 17 -84 -3z m77 -27 c30 -16 72
-82 72 -115 0 -30 -44 -71 -76 -71 -30 0 -74 42 -94 91 -17 39 -4 79 30 96 32
16 35 16 68 -1z"/>
<path d="M2472 1000 c-24 -60 -41 -114 -37 -119 3 -6 31 -18 61 -28 50 -15 58
-16 82 -2 34 19 70 72 78 115 10 55 -12 93 -70 120 -28 13 -55 24 -61 24 -5 0
-29 -49 -53 -110z m118 55 c36 -18 46 -52 30 -99 -26 -79 -68 -102 -132 -73
l-26 12 35 88 c37 92 44 97 93 72z"/>
<path d="M4270 1046 c0 -17 70 -208 81 -220 8 -9 129 31 129 44 0 17 -14 17
-60 -1 l-49 -18 -27 72 c-45 121 -53 137 -63 137 -6 0 -11 -6 -11 -14z"/>
<path d="M2954 933 c-3 -21 -12 -69 -20 -106 -21 -104 -22 -103 43 -116 69
-13 93 -14 93 -2 0 6 -27 15 -60 22 l-60 12 6 36 c9 49 13 51 59 41 55 -13 65
-12 65 4 0 9 -18 16 -55 21 l-56 7 7 36 c4 20 8 40 10 43 2 3 29 2 59 -4 52
-9 77 -5 62 9 -5 5 -118 33 -139 34 -4 0 -10 -17 -14 -37z"/>
<path d="M3905 956 c-41 -8 -60 -16 -60 -26 0 -8 9 -63 19 -122 21 -121 15
-115 109 -97 37 8 57 17 57 26 0 9 -7 12 -17 9 -90 -26 -113 -18 -113 40 0 30
2 32 50 38 47 6 70 19 53 29 -5 3 -30 1 -58 -4 -56 -10 -67 -2 -63 46 3 28 7
31 56 39 33 6 52 14 52 22 0 16 -2 16 -85 0z"/>
<path d="M3370 913 c0 -5 18 -63 41 -130 55 -165 63 -165 119 3 23 69 39 128
36 132 -14 13 -35 -27 -61 -115 -16 -51 -31 -93 -34 -93 -3 0 -21 47 -39 105
-22 71 -37 105 -47 105 -8 0 -15 -3 -15 -7z"/>
</g>
</svg>
