<?xml version="1.0" standalone="no"?>
<!DOCTYPE svg PUBLIC "-//W3C//DTD SVG 20010904//EN"
 "http://www.w3.org/TR/2001/REC-SVG-20010904/DTD/svg10.dtd">
<svg version="1.0" xmlns="http://www.w3.org/2000/svg"
 width="648.000000pt" height="648.000000pt" viewBox="0 0 648.000000 648.000000"
 preserveAspectRatio="xMidYMid meet">
<metadata>
Created by potrace 1.11, written by Peter Selinger 2001-2013
</metadata>
<g transform="translate(0.000000,648.000000) scale(0.100000,-0.100000)"
fill="#000000" stroke="none">
<path d="M4060 4003 l0 -1137 -205 274 c-113 151 -210 274 -217 272 -34 -8
-798 -347 -798 -354 0 -4 286 -393 636 -863 l636 -855 429 0 429 0 0 1900 0
1900 -455 0 -455 0 0 -1137z"/>
<path d="M1958 2683 l-448 -197 0 -573 0 -573 455 0 455 0 0 770 c0 424 -3
770 -7 769 -5 0 -209 -88 -455 -196z"/>
</g>
</svg>
