<?xml version="1.0" standalone="no"?>
<!DOCTYPE svg PUBLIC "-//W3C//DTD SVG 20010904//EN"
 "http://www.w3.org/TR/2001/REC-SVG-20010904/DTD/svg10.dtd">
<svg version="1.0" xmlns="http://www.w3.org/2000/svg"
 width="648.000000pt" height="648.000000pt" viewBox="0 0 648.000000 648.000000"
 preserveAspectRatio="xMidYMid meet">
<metadata>
Created by potrace 1.14, written by Peter Selinger 2001-2017
</metadata>
<g transform="translate(0.000000,648.000000) scale(0.100000,-0.100000)"
fill="#000000" stroke="none">
<path d="M4065 5128 c-3 -7 -4 -516 -3 -1131 2 -740 0 -1117 -7 -1117 -5 0
-21 17 -35 37 -14 21 -32 45 -40 54 -8 9 -44 56 -80 105 -61 84 -224 304 -245
332 -8 10 -40 -1 -145 -49 -74 -33 -139 -65 -145 -70 -5 -5 -17 -9 -26 -9 -10
0 -30 -7 -46 -15 -38 -20 -149 -69 -316 -140 -86 -37 -136 -64 -133 -71 6 -15
91 -131 453 -615 158 -212 297 -398 308 -414 11 -15 54 -73 96 -129 41 -55
149 -200 239 -321 90 -121 168 -223 174 -227 6 -4 198 -7 427 -5 l416 2 4
1895 4 1895 -448 3 c-353 2 -449 0 -452 -10z"/>
<path d="M2390 2873 c-8 -4 -48 -21 -88 -40 -39 -18 -74 -33 -76 -33 -3 0 -33
-13 -68 -29 -35 -16 -90 -40 -123 -54 -33 -14 -90 -39 -127 -56 -36 -17 -69
-31 -72 -31 -2 0 -47 -19 -98 -43 -51 -24 -119 -54 -150 -66 -32 -13 -62 -29
-68 -36 -7 -8 -9 -194 -8 -576 l3 -564 453 -3 452 -2 0 770 c0 423 -3 770 -7
769 -5 0 -15 -3 -23 -6z"/>
</g>
</svg>
