<?xml version="1.0" standalone="no"?>
<!DOCTYPE svg PUBLIC "-//W3C//DTD SVG 20010904//EN"
 "http://www.w3.org/TR/2001/REC-SVG-20010904/DTD/svg10.dtd">
<svg version="1.0" xmlns="http://www.w3.org/2000/svg"
 width="512.000000pt" height="512.000000pt" viewBox="0 0 512.000000 512.000000"
 preserveAspectRatio="xMidYMid meet">
<metadata>
Created by potrace 1.14, written by Peter Selinger 2001-2017
</metadata>
<g transform="translate(0.000000,512.000000) scale(0.100000,-0.100000)"
fill="#000000" stroke="none">
<path d="M3210 3170 c0 -490 -3 -890 -7 -889 -9 0 -24 20 -201 259 -85 116
-127 166 -141 166 -11 0 -17 -4 -15 -8 3 -4 1 -8 -4 -8 -14 0 -22 38 -10 42
14 5 -53 108 -69 108 -7 0 -10 7 -6 17 5 12 2 15 -9 11 -18 -7 -38 9 -32 26 2
6 -12 31 -31 56 -19 25 -49 66 -67 93 -18 26 -36 47 -40 47 -5 0 -8 7 -8 16 0
8 -4 13 -9 10 -12 -8 -32 18 -29 35 2 10 -8 13 -37 12 -33 -1 -36 0 -17 7 24
10 28 24 11 43 -5 7 -26 34 -45 61 -19 27 -34 45 -34 40 0 -5 -8 6 -17 24 -11
23 -19 30 -26 23 -17 -17 -31 -13 -17 4 9 11 9 15 1 15 -7 0 -11 6 -10 13 3
26 -2 36 -15 31 -9 -3 -15 5 -19 23 -3 15 -18 42 -32 58 -14 17 -34 41 -45 53
-11 13 -20 26 -20 28 0 2 -8 13 -17 23 -15 19 -17 19 -30 3 -13 -15 -13 -15
-8 6 4 15 2 22 -7 22 -10 0 -9 3 2 10 13 8 12 10 -4 10 -12 0 -16 5 -13 14 4
11 1 13 -10 9 -12 -5 -14 -1 -9 14 5 15 -2 30 -24 53 -16 18 -30 36 -30 41 0
4 -11 20 -24 34 -13 14 -34 41 -47 60 -13 19 -30 35 -37 35 -7 0 -10 5 -7 10
3 6 3 15 0 20 -11 17 -35 -9 -27 -28 5 -15 4 -15 -12 1 -16 15 -16 18 -2 33
22 21 20 29 -9 52 -14 11 -25 25 -25 31 0 6 -7 11 -15 11 -20 0 -19 -17 3 -29
13 -8 14 -12 5 -22 -9 -9 -15 -6 -24 14 l-12 27 -309 0 -308 0 -2 -1015 -3
-1015 23 0 c12 0 22 5 22 10 0 6 9 10 20 10 25 0 27 -20 3 -20 -10 0 -27 -7
-37 -15 -10 -8 -23 -12 -27 -9 -17 10 -20 -74 -17 -491 l3 -430 359 -3 359 -2
-7 882 c-3 486 -9 895 -12 910 l-6 27 41 -17 c25 -10 41 -24 41 -34 0 -9 5
-20 10 -23 6 -4 10 -12 9 -18 -1 -7 1 -20 6 -30 6 -14 10 -15 23 -5 13 11 15
10 10 -9 -4 -13 -2 -23 3 -23 5 0 9 -6 9 -14 0 -22 19 -30 35 -16 10 8 15 9
15 2 0 -6 -7 -15 -16 -20 -11 -6 -13 -11 -5 -16 6 -4 11 -3 11 3 0 6 7 8 16 4
10 -3 12 -9 6 -15 -11 -11 9 -58 33 -78 20 -16 19 -3 0 16 -17 17 -20 44 -5
44 6 0 10 -9 10 -20 0 -11 4 -20 10 -20 5 0 14 -19 21 -42 15 -57 21 -66 30
-42 7 18 7 18 14 0 5 -11 3 -21 -6 -27 -13 -8 -12 -10 10 -13 5 0 13 -5 18
-10 5 -5 3 -6 -4 -2 -36 20 -19 -4 253 -369 126 -170 302 -407 390 -525 88
-118 207 -279 264 -357 l105 -142 336 -1 336 0 6 1492 c3 820 4 1495 1 1500
-3 4 -165 8 -360 8 l-354 0 0 -890z m-1313 814 c-3 -3 -12 -4 -19 -1 -8 3 -5
6 6 6 11 1 17 -2 13 -5z m83 -105 c0 -6 -4 -7 -10 -4 -5 3 -10 11 -10 16 0 6
5 7 10 4 6 -3 10 -11 10 -16z m119 -165 c10 -8 11 -13 3 -18 -6 -4 -9 -13 -5
-21 3 -8 0 -15 -6 -15 -6 0 -11 11 -11 25 0 14 -10 36 -22 50 -20 23 -23 24
-29 8 -3 -10 -6 0 -5 23 l1 42 30 -42 c16 -22 36 -46 44 -52z m141 -201 c0
-30 -16 -22 -22 11 -4 17 -1 23 9 19 7 -3 13 -16 13 -30z m40 -33 c0 -5 -7
-10 -15 -10 -8 0 -15 5 -15 10 0 6 7 10 15 10 8 0 15 -4 15 -10z m5 -30 c-4
-6 -1 -17 5 -25 10 -12 10 -15 -2 -15 -7 0 -15 11 -16 25 -1 14 3 25 9 25 5 0
7 -5 4 -10z m148 -179 c3 -11 -4 -26 -16 -36 -19 -16 -20 -16 -14 0 4 9 7 25
7 36 0 24 16 25 23 0z m32 -41 c3 -5 -1 -10 -9 -10 -9 0 -16 5 -16 10 0 6 4
10 9 10 6 0 13 -4 16 -10z m15 -29 c0 -6 -4 -13 -10 -16 -5 -3 -10 1 -10 9 0
9 5 16 10 16 6 0 10 -4 10 -9z m139 -180 c7 -13 5 -21 -7 -32 -16 -14 -17 -12
-17 22 0 38 8 42 24 10z m54 -81 c19 -29 22 -40 11 -40 -8 0 -14 7 -14 15 0 8
-4 15 -10 15 -5 0 -10 9 -10 19 0 11 -6 22 -12 24 -7 3 -8 6 -2 6 6 1 22 -17
37 -39z m-643 -100 c0 -5 -4 -10 -10 -10 -5 0 -10 5 -10 10 0 6 5 10 10 10 6
0 10 -4 10 -10z m780 -79 c0 -10 -8 -25 -17 -32 -15 -12 -16 -12 -10 4 4 10 7
28 7 38 0 11 5 17 10 14 6 -3 10 -14 10 -24z m-730 -45 c0 -2 -7 -9 -15 -16
-13 -11 -14 -10 -9 4 5 14 24 23 24 12z m736 -35 c-3 -5 -16 -11 -28 -14 -22
-6 -22 -5 -4 8 22 17 40 20 32 6z m-146 -36 c-7 -8 -17 -15 -23 -15 -5 0 -16
-8 -23 -17 -9 -14 -16 -15 -24 -7 -18 18 14 49 52 52 27 2 29 0 18 -13z m-135
-55 c3 -5 -1 -10 -9 -10 -9 0 -16 5 -16 10 0 6 4 10 9 10 6 0 13 -4 16 -10z
m-321 -15 c-4 -8 -8 -15 -10 -15 -2 0 -4 7 -4 15 0 8 4 15 10 15 5 0 7 -7 4
-15z m270 -6 c-3 -5 -10 -7 -15 -3 -5 3 -7 10 -3 15 3 5 10 7 15 3 5 -3 7 -10
3 -15z m26 -19 c-20 -13 -33 -13 -25 0 3 6 14 10 23 10 15 0 15 -2 2 -10z
m-151 -41 c-15 -9 -32 -2 -24 11 3 5 13 6 21 3 12 -4 13 -8 3 -14z m55 15 c13
-5 8 -11 -20 -26 -20 -10 -39 -17 -41 -14 -3 3 7 10 23 16 23 9 25 13 14 20
-17 11 0 13 24 4z m-104 -60 c0 -2 -13 -10 -28 -18 -25 -13 -28 -13 -28 2 0
12 9 17 28 18 15 1 28 0 28 -2z m-460 -194 c15 -1 -76 -49 -94 -50 -5 0 -3 7
4 15 7 8 21 15 31 15 10 0 21 5 25 11 4 8 -4 9 -27 5 -26 -4 -29 -4 -14 4 11
5 29 7 40 5 11 -3 27 -5 35 -5z m-230 -60 c0 -5 -9 -10 -20 -10 -11 0 -20 5
-20 10 0 6 9 10 20 10 11 0 20 -4 20 -10z m40 0 c0 -5 -4 -10 -10 -10 -5 0
-10 5 -10 10 0 6 5 10 10 10 6 0 10 -4 10 -10z m80 6 c0 -8 -90 -46 -109 -46
-10 0 -24 -7 -31 -15 -7 -8 -19 -15 -28 -15 -10 0 -5 9 14 25 16 14 41 25 55
25 15 0 40 7 55 15 29 15 44 19 44 11z m-200 -81 c0 -8 -8 -11 -20 -8 -20 5
-25 15 -14 26 9 9 34 -4 34 -18z m-54 -9 c9 -9 10 -17 4 -21 -9 -6 -40 17 -40
29 0 11 21 6 36 -8z m-73 -46 c16 0 -22 -26 -52 -35 -16 -5 -21 -4 -17 4 4 6
0 11 -8 11 -9 0 -16 5 -16 10 0 14 27 13 32 -2 3 -7 12 -9 23 -4 17 6 17 9 5
17 -12 9 -12 10 3 5 10 -3 24 -6 30 -6z"/>
<path d="M1940 2831 c0 -6 4 -13 10 -16 6 -3 7 1 4 9 -7 18 -14 21 -14 7z"/>
</g>
</svg>
